<?xml version="1.0" encoding="UTF-8" standalone="no"?>
<!-- Created with Inkscape (http://www.inkscape.org/) -->

<svg
   xmlns:dc="http://purl.org/dc/elements/1.1/"
   xmlns:cc="http://creativecommons.org/ns#"
   xmlns:rdf="http://www.w3.org/1999/02/22-rdf-syntax-ns#"
   xmlns:svg="http://www.w3.org/2000/svg"
   xmlns="http://www.w3.org/2000/svg"
   xmlns:sodipodi="http://sodipodi.sourceforge.net/DTD/sodipodi-0.dtd"
   xmlns:inkscape="http://www.inkscape.org/namespaces/inkscape"
   id="svg5885"
   version="1.1"
   inkscape:version="0.48.2 r9819"
   width="638.84937"
   height="504.66611"
   sodipodi:docname="lock_green.svg">
  <metadata
     id="metadata5891">
    <rdf:RDF>
      <cc:Work
         rdf:about="">
        <dc:format>image/svg+xml</dc:format>
        <dc:type
           rdf:resource="http://purl.org/dc/dcmitype/StillImage" />
        <dc:title />
      </cc:Work>
    </rdf:RDF>
  </metadata>
  <defs
     id="defs5889" />
  <sodipodi:namedview
     pagecolor="#ffffff"
     bordercolor="#666666"
     borderopacity="1"
     objecttolerance="10"
     gridtolerance="10"
     guidetolerance="10"
     inkscape:pageopacity="0"
     inkscape:pageshadow="2"
     inkscape:window-width="1137"
     inkscape:window-height="788"
     id="namedview5887"
     showgrid="false"
     inkscape:zoom="0.51754386"
     inkscape:cx="493.0336"
     inkscape:cy="261.94316"
     inkscape:window-x="580"
     inkscape:window-y="0"
     inkscape:window-maximized="0"
     inkscape:current-layer="svg5885"
     fit-margin-top="0"
     fit-margin-left="0"
     fit-margin-right="0"
     fit-margin-bottom="0" />
  <path
     style="fill:#000000"
     d="m 399.08492,357.38476 0,-147.28135 -199.54247,0 -199.54245,0 0,147.28135 0,147.28134 199.54245,0 199.54247,0 0,-147.28134 z m -237.55056,66.96126 c 0,-2.36716 4.95436,-15.17753 11.00965,-28.46748 9.03628,-19.83243 8.18469,-27.28509 -4.751,-41.57889 -19.70366,-21.7723 -19.70868,-29.06408 -0.0352,-50.80333 20.40331,-22.54542 43.61387,-22.04991 64.82111,1.38381 16.15431,17.85029 16.17775,19.98203 0.48314,43.93491 -13.19758,20.14203 -14.39765,29.77727 -6.00337,48.20067 14.57701,31.99269 14.88886,31.63417 -27.51642,31.63417 -20.90445,0 -38.00809,-1.93676 -38.00809,-4.30391 z M 634.92709,139.00309 c -3.31815,-52.110703 -8.16196,-66.023623 -31.44836,-90.329373 -62.17652,-64.89829 -213.58278,-64.89829 -275.75927,0 -23.28642,24.30575 -28.13024,38.21867 -31.44838,90.329373 l -3.92229,61.59828 37.9061,0 37.9061,0 4.61886,-48.06942 c 2.54036,-26.43819 9.72298,-53.162643 15.96133,-59.387653 14.93988,-14.90792 138.86572,-14.87435 153.78173,0.0413 6.2021,6.2021 13.35504,32.907803 15.89542,59.345993 l 4.61885,48.06927 37.9061,0 37.9061,0 -3.92229,-61.59829 z"
     id="path3203"
     inkscape:connector-curvature="0" />
</svg>
