<?xml version="1.0" encoding="UTF-8" standalone="no"?>
<!-- Created with Inkscape (http://www.inkscape.org/) -->

<svg
   xmlns:dc="http://purl.org/dc/elements/1.1/"
   xmlns:cc="http://creativecommons.org/ns#"
   xmlns:rdf="http://www.w3.org/1999/02/22-rdf-syntax-ns#"
   xmlns:svg="http://www.w3.org/2000/svg"
   xmlns="http://www.w3.org/2000/svg"
   xmlns:sodipodi="http://sodipodi.sourceforge.net/DTD/sodipodi-0.dtd"
   xmlns:inkscape="http://www.inkscape.org/namespaces/inkscape"
   id="svg5767"
   version="1.1"
   inkscape:version="0.48.2 r9819"
   width="398.55823"
   height="504"
   sodipodi:docname="lock_red.svg">
  <metadata
     id="metadata5773">
    <rdf:RDF>
      <cc:Work
         rdf:about="">
        <dc:format>image/svg+xml</dc:format>
        <dc:type
           rdf:resource="http://purl.org/dc/dcmitype/StillImage" />
        <dc:title />
      </cc:Work>
    </rdf:RDF>
  </metadata>
  <defs
     id="defs5771" />
  <sodipodi:namedview
     pagecolor="#ffffff"
     bordercolor="#666666"
     borderopacity="1"
     objecttolerance="10"
     gridtolerance="10"
     guidetolerance="10"
     inkscape:pageopacity="0"
     inkscape:pageshadow="2"
     inkscape:window-width="783"
     inkscape:window-height="752"
     id="namedview5769"
     showgrid="false"
     inkscape:zoom="0.25383772"
     inkscape:cx="17.89709"
     inkscape:cy="20.904543"
     inkscape:window-x="425"
     inkscape:window-y="158"
     inkscape:window-maximized="0"
     inkscape:current-layer="svg5767"
     fit-margin-top="0"
     fit-margin-left="0"
     fit-margin-right="0"
     fit-margin-bottom="0" />
  <path
     style="fill:#000000"
     d="m 0,356.91304 0,-147.08696 199.27911,0 199.27912,0 0,147.08696 0,147.08696 -199.27912,0 L 0,504 0,356.91304 z m 237.23704,66.87288 c 0,-2.36403 -4.9478,-15.15748 -10.99512,-28.4299 -9.02433,-19.80626 -8.17388,-27.24909 4.74474,-41.524 19.67767,-21.74359 19.68268,-29.02573 0.0348,-50.73628 -20.37638,-22.51567 -43.5563,-22.02081 -64.73555,1.38201 -16.13299,17.82674 -16.15642,19.95566 -0.48257,43.87693 13.18015,20.11546 14.37863,29.73798 5.99544,48.13706 -14.55787,31.95046 -14.86931,31.59242 27.48,31.59242 20.87686,0 37.95793,-1.93422 37.95793,-4.29824 z M 30.174587,138.81959 C 33.488372,86.7777 38.32579,72.88315 61.581446,48.60948 c 62.094454,-64.81264 213.300894,-64.81264 275.395334,0 23.25567,24.27367 28.09309,38.16822 31.40686,90.21011 l 3.91711,61.51701 -37.85606,0 -37.85607,0 -4.61277,-48.00599 C 289.43882,125.92732 282.2657,99.23815 276.03559,93.02136 261.11542,78.1331 137.35314,78.16664 122.45682,93.06296 c -6.19392,6.19391 -13.33741,32.86437 -15.87443,59.26766 l -4.61277,48.00583 -37.856065,0 -37.856076,0 3.917108,-61.517 z"
     id="path3137"
     inkscape:connector-curvature="0" />
</svg>
