<?xml version="1.0" encoding="UTF-8" standalone="no"?>
<!-- Created with Inkscape (http://www.inkscape.org/) -->

<svg
   xmlns:dc="http://purl.org/dc/elements/1.1/"
   xmlns:cc="http://creativecommons.org/ns#"
   xmlns:rdf="http://www.w3.org/1999/02/22-rdf-syntax-ns#"
   xmlns:svg="http://www.w3.org/2000/svg"
   xmlns="http://www.w3.org/2000/svg"
   xmlns:sodipodi="http://sodipodi.sourceforge.net/DTD/sodipodi-0.dtd"
   xmlns:inkscape="http://www.inkscape.org/namespaces/inkscape"
   width="664.64832"
   height="504.54001"
   id="svg2"
   version="1.1"
   inkscape:version="0.48.2 r9819"
   sodipodi:docname="lock_yellow.svg">
  <defs
     id="defs4" />
  <sodipodi:namedview
     id="base"
     pagecolor="#ffffff"
     bordercolor="#666666"
     borderopacity="1.0"
     inkscape:pageopacity="0.0"
     inkscape:pageshadow="2"
     inkscape:zoom="0.35"
     inkscape:cx="237.82884"
     inkscape:cy="116.92858"
     inkscape:document-units="px"
     inkscape:current-layer="layer1"
     showgrid="false"
     inkscape:window-width="821"
     inkscape:window-height="632"
     inkscape:window-x="905"
     inkscape:window-y="366"
     inkscape:window-maximized="0"
     fit-margin-top="0"
     fit-margin-left="0"
     fit-margin-right="0"
     fit-margin-bottom="0" />
  <metadata
     id="metadata7">
    <rdf:RDF>
      <cc:Work
         rdf:about="">
        <dc:format>image/svg+xml</dc:format>
        <dc:type
           rdf:resource="http://purl.org/dc/dcmitype/StillImage" />
        <dc:title></dc:title>
      </cc:Work>
    </rdf:RDF>
  </metadata>
  <g
     inkscape:label="Layer 1"
     inkscape:groupmode="layer"
     id="layer1"
     transform="translate(-22.885442,-30.465037)">
    <path
       style="fill:#000000"
       d="m 421.87065,482.75699 c 0,-56.71613 -0.79132,-57.84764 -28.39073,-40.61138 -14.30058,8.9309 -21.23571,9.03426 -29.82538,0.44459 -7.77053,-7.77053 -16.58488,-8.30592 -28.83221,-1.75136 -14.00331,7.49436 -22.51644,4.17899 -41.29305,-16.0813 -28.07917,-30.2978 -28.78908,-39.58237 -5.18986,-67.8709 14.91103,-17.87386 27.30485,-21.3742 75.68114,-21.3742 l 57.85009,0 0,-47.49824 0,-47.49825 -199.4926,0 -199.492608,0 0,147.24455 0,147.24455 199.492608,0 199.4926,0 0,-52.24806 z M 184.37945,454.705 c 0,-2.36656 4.95313,-15.17369 11.00687,-28.46038 9.03407,-19.82747 8.1827,-27.27823 -4.74983,-41.56847 -19.69865,-21.76683 -19.70369,-29.05676 -0.038,-50.79061 20.39823,-22.53982 43.60302,-22.04442 64.805,1.38352 16.15025,17.84584 16.17373,19.97699 0.48353,43.9239 -13.19434,20.13698 -14.39406,29.76981 -6.00187,48.18867 14.5733,31.98465 14.88509,31.62623 -27.50957,31.62623 -20.89922,0 -37.99859,-1.93632 -37.99859,-4.30286 z m 454.93749,10.04531 c 25.25396,-13.99716 47.6925,-48.94703 48.20719,-75.08665 0.59374,-30.16148 -26.43134,-70.12859 -55.58576,-82.20472 -34.42891,-14.26087 -78.6702,-5.92333 -101.30909,19.09228 -14.50389,16.02667 -29.97786,18.50018 -117.35571,18.75944 -93.59824,0.2774 -101.74721,1.81224 -116.32795,21.90789 -14.67086,20.21992 -14.54527,23.10229 1.95419,44.82487 15.05351,19.81902 20.35584,21.54036 36.24315,11.76615 15.00659,-9.23232 20.86987,-8.72609 30.28173,2.6146 10.29232,12.4014 13.56702,12.34869 27.70507,-0.4465 8.81832,-7.98045 18.71449,-11.82857 21.99149,-8.55157 3.27709,3.27708 25.46989,7.26266 49.31743,8.8569 29.7205,1.98695 52.48498,10.57758 72.37173,27.31121 31.78507,26.7454 67.3886,30.62011 102.50653,11.15581 z m -14.76341,-68.12874 c -7.91757,-20.63283 12.18273,-40.03634 26.57005,-25.64903 12.15993,12.15992 4.6268,40.53709 -10.76102,40.53709 -5.55273,0 -12.66683,-6.69964 -15.80903,-14.88806 z M 391.66378,169.43342 c -3.31738,-52.09769 -8.15992,-66.00708 -31.44052,-90.306788 -62.16094,-64.882127 -213.52947,-64.882127 -275.690416,0 -23.2806,24.299708 -28.123135,38.209098 -31.440507,90.306788 l -3.921271,61.5829 37.896668,0 37.896556,0 4.61769,-48.05739 c 2.53982,-26.43164 9.7206,-53.14939 15.95741,-59.37282 14.9361,-14.90428 138.83099,-14.87065 153.74325,0.038 6.20052,6.20052 13.35175,32.89957 15.89148,59.33109 l 4.61769,48.0573 37.89657,0 37.89666,0 -3.92126,-61.58289 z"
       id="path3020"
       inkscape:connector-curvature="0" />
  </g>
</svg>
